<svg height="512" viewBox="0 0 60 55" width="512" xmlns="http://www.w3.org/2000/svg"><g id="Page-1" fill="none" fill-rule="evenodd"><g id="067---missed-call" fill-rule="nonzero" transform="translate(-1)"><g id="color_copy" transform="translate(1 1)"><path id="Shape" d="m40.186 45.419 9.973 7.236c.718772.5218232 1.7101307.4442607 2.339-.183l5.975-5.961c.5551-.5583757.6871506-1.4108493.327-2.111-4.583-9.028-15.745-15.4-28.8-15.4s-24.217 6.372-28.8 15.4c-.36263121.700743-.23129132 1.5554626.325 2.115l5.975 5.957c.6288693.6272607 1.62022802.7048232 2.339.183l9.973-7.236c.3558102-.2582442.6048037-.6377814.7-1.067l1.2-5.424c.1796818-.7893569.7864093-1.4115326 1.571-1.611 4.4028926-1.1226838 9.0171074-1.1226838 13.42 0 .7845624.1991727 1.3911146.8215648 1.57 1.611l1.2 5.424c.0985037.4311862.3523139.8110116.713 1.067z" fill="#e8edfc"/><path id="Shape" d="m27 36.475c-2.2633184-.0049419-4.5180756.2779949-6.71.842-.7848295.1990535-1.391738.8214148-1.571 1.611l-1.2 5.424c-.0951963.4292186-.3441898.8087558-.7 1.067l-9.489 6.881.172.171c.6288693.6272607 1.62022802.7048232 2.339.183l9.973-7.236c.3558102-.2582442.6048037-.6377814.7-1.067l1.2-5.424c.179262-.7895852.7861705-1.4119465 1.571-1.611 1.705615-.439878 3.4509863-.7078813 5.21-.8-.495-.021-.99-.041-1.495-.041z" fill="#cad9fc"/><path id="Shape" d="m58.8 44.4c-4.583-9.028-15.745-15.4-28.8-15.4-.5 0-1 .027-1.5.046 12.4.468 22.894 6.675 27.3 15.35.3626312.700743.2312913 1.5554626-.325 2.115l-5.8 5.79.489.354c.718772.5218232 1.7101307.4442607 2.339-.183l5.975-5.961c.5534183-.5595557.6834299-1.4118985.322-2.111z" fill="#cad9fc"/><path id="Shape" d="m51 0-17.307 1.923 5.571 5.571-9.385 9.385-15.886-14.121c-.7987092-.7279533-1.9272131-.97007565-2.9542462-.63383834s-1.7938561 1.19886511-2.00742241 2.2582243c-.21356632 1.05935919.1591331 2.15171417.97566861 2.85961404l18 16c1.1871701 1.0550093 2.9908878 1.0019588 4.114-.121l11.385-11.385 5.571 5.571z" fill="#e8edfc"/><g fill="#cad9fc"><path id="Shape" d="m10.993 2.758 15.886 14.121 1.412-1.412-14.298-12.709c-.9645767-.85293359-2.3666628-.99310193-3.481-.348.1716313.09952456.3327811.21611523.481.348z"/><path id="Shape" d="m47.963.338-1.586 14.269 2.7 2.7 1.923-17.307z"/><path id="Shape" d="m40.506 11.736-11.385 11.385c-.1883427.1834973-.4001896.3412056-.63.469 1.175665.6883173 2.6678835.4955211 3.63-.469l9.885-9.885z"/></g></g><g id="color" fill="#fff" transform="translate(1 30)"><path id="Shape" d="m1.2 15.4c-.36263121.700743-.23129132 1.5554626.325 2.115l5.975 5.957c.6288693.6272607 1.62022802.7048232 2.339.183l.489-.354-5.8-5.79c-.55543664-.5581394-.68789519-1.4106394-.328-2.111 4.4-8.675 14.9-14.882 27.3-15.35-.5-.019-1-.046-1.5-.046-13.055-.004-24.217 6.368-28.8 15.396z"/></g><g id="Icons"><path id="Shape" d="m6.28 38.3 1.391 1.44c-1.8516143 1.7700601-3.39810076 3.8338441-4.577 6.108l-1.784-.905c1.27954785-2.4729118 2.95882152-4.7174621 4.97-6.643z" fill="#fff"/><g fill="#428dff"><path id="Shape" d="m4.347 43.011c-.55228473.0027614-1.00223852-.4427153-1.00499994-.995-.00276143-.5522847.44271521-1.0022385.99499994-1.005h.01c.55228475 0 1 .4477153 1 1s-.44771525 1-1 1z"/><path id="Shape" d="m31 29c-4.5077762-.0009279-8.9821999.7726589-13.228 2.287-4.2800086 1.5060529-8.1954182 3.895434-11.492 7.013-.19568178.1869759-.30637693.4458501-.30637693.7165s.11069515.5295241.30637693.7165c.38985166.3719372 1.00314834.3719372 1.393 0 3.0939186-2.9220394 6.7672684-5.1614133 10.782-6.573 4.0273863-1.4320615 8.2705839-2.1626559 12.545-2.16 12.373 0 23.327 5.828 27.906 14.849.1660559.3147267.1098823.7006675-.139.955l-5.976 5.961c-.2796813.283201-.7250186.31772-1.045.081l-9.974-7.238c-.1580219-.1141438-.2683977-.2825558-.31-.473l-1.205-5.423c-.258035-1.1573024-1.1455998-2.0707786-2.295-2.362-4.568605-1.1619918-9.355395-1.1619918-13.924 0-1.1510634.2894181-2.0408046 1.2027568-2.3 2.361l-1.2 5.426c-.0427785.1899352-.1533526.3577517-.311.472l-9.973 7.237c-.32116959.2338098-.76465492.1994672-1.046-.081l-5.975-5.965c-.24888228-.2543325-.30505586-.6402733-.139-.955.25046113-.4923619.05436185-1.0945389-.438-1.345s-1.09453887-.0543619-1.345.438c-.56029382 1.0874135-.35417849 2.4122097.51 3.278l5.979 5.965c.97529368.9775588 2.517646 1.098128 3.633.284l9.967-7.236c.555788-.4006229.9445349-.9919312 1.092-1.661l1.208-5.424c.0970613-.4231717.4243575-.7554973.846-.859 4.2381068-1.075979 8.6778932-1.075979 12.916 0 .4219128.1036663.7492719.4364427.846.86l1.2 5.421c.147101.6697626.5358735 1.2618218 1.092 1.663l9.972 7.236c1.1151603.8135495 2.6568495.6929989 3.632-.284l5.975-5.961c.8641785-.8657903 1.0702938-2.1905865.51-3.278-4.917-9.684-16.57-15.942-29.689-15.942z"/><path id="Shape" d="m10.011 3.343c-1.46698088 1.65093165-1.31836032 4.1783764.332 5.646l18 16c1.5827575 1.4065583 3.9874693 1.3359733 5.485-.161l10.678-10.678 4.864 4.865c.2723344.2713955.6761479.3626248 1.0387048.2346635.3625568-.1279612.6196462-.4524503.6612952-.8346635l1.924-17.305c.0318964-.30038799-.0737025-.59909659-.2873029-.81269706-.2136005-.21360047-.5123091-.3191993-.8126971-.28730294l-17.312 1.919c-.3822132.04164902-.7067023.29873838-.8346635.66129522-.1279613.36255684-.036732.76637037.2346635 1.03870478l4.865 4.864-8.011 8.011-15.179-13.493c-1.6509317-1.46698088-4.1783764-1.31836032-5.646.332zm2.989.657c.4887579-.0021258.9611703.17587438 1.327.5l15.888 14.126c.3955874.351549.9965815.3340146 1.371-.04l9.385-9.386c.3903819-.39049985.3903819-1.02350015 0-1.414l-4.1-4.1 14-1.555-1.555 14-4.1-4.1c-.3904999-.3903819-1.0235001-.3903819-1.414 0l-11.388 11.383c-.758768.7252397-1.9427593.7602026-2.743.081l-18-16c-.6071762-.53691256-.8302706-1.38719412-.5649085-2.1530407.265362-.76584658.966706-1.29581485 1.7759085-1.3419593z"/></g></g></g></g></svg>